<svg xmlns="http://www.w3.org/2000/svg" version="1.1" xmlns:xlink="http://www.w3.org/1999/xlink" xmlns:svgjs="http://svgjs.dev/svgjs" width="100%" height="100%" viewBox="0 0 1000 600"><rect width="1000" height="600" x="0" y="0" fill="#8bd8bd"/><g><circle r="166.66666666666666" cx="261.4660288492838" cy="283.6883008752604" fill="#243665" transform="matrix(1.318573716024441,0,0,1.318573716024441,0,-74.06392116549037)"/><path d="M173.92230543064045 344.7630965476502L173.92230543064045 221.0386558269486L157.8143668553459 218.63489826940037L157.8143668553459 208.688315272649L214.89670149781344 208.688315272649L214.89670149781344 218.63489826940037L195.2245706820163 221.0386558269486L195.2245706820163 344.7630965476502L246.5323613069254 342.96718572879234L258.27485512253463 309.5632444980357L270.40416049912864 311.3591553168936L263.4415524014027 356.50559036325944L157.42755529436113 356.50559036325944L157.42755529436113 346.75241314700054L173.92230543064045 344.7630965476502ZM297.86778132904766 325.06333633463987L301.4319735695502 340.5910575684573Q303.4212901689005 343.57503246748274 309.8865691167889 345.9511606278178Q316.35184806467726 348.354918185366 323.5354913401088 348.354918185366L323.5354913401088 348.354918185366Q334.8635441975201 348.354918185366 340.22364725688055 343.96184402846745Q345.6113797134542 339.5963992687822 345.6113797134542 331.83253865187345L345.6113797134542 331.83253865187345Q345.6113797134542 326.472435592513 342.21296385623083 322.4938023938125Q338.8421773962207 318.5151691951119 332.76371000931704 315.4206767072337Q326.7128720196266 312.3538136165687 315.35718976500215 307.9607394596702L315.35718976500215 307.9607394596702Q300.05050370889035 302.1861954421118 292.9773780223116 294.1460408530711Q285.93188173294607 286.07825686681724 285.93188173294607 272.95429319054807L285.93188173294607 272.95429319054807Q285.93188173294607 264.1957742739642 291.2090966006669 257.6476071344362Q296.45868207117456 251.07181059769505 305.71453013759594 247.39710076833967Q314.9703782040174 243.72239093898435 326.29843106142863 243.72239093898435L326.29843106142863 243.72239093898435Q335.47139093621047 243.72239093898435 342.32348144508364 245.10386079964422Q349.17557195395676 246.48533066030416 353.3752403303629 247.89442991817725Q357.5472793095558 249.27589977883719 358.9287491702158 249.69034073703517L358.9287491702158 249.69034073703517L358.9287491702158 274.335763051208L346.7994437936217 274.335763051208L342.82081059492117 259.6369237337865Q341.63274651475365 257.2331661762383 336.46604923588563 255.54777294623318Q331.2717225598043 253.86237971622808 324.9169612007687 253.86237971622808L324.9169612007687 253.86237971622808Q315.96503650369255 253.86237971622808 310.49441585547925 257.8410129149286Q305.02379520726606 261.8196461136292 305.02379520726606 268.58884843086275L305.02379520726606 268.58884843086275Q305.02379520726606 274.5567982289135 307.89725251743863 278.4249138387613Q310.7983392248244 282.29302944860905 315.1637839845098 284.6967870061573Q319.55685814140827 287.07291516649235 327.09968358061144 290.25029584601015L327.09968358061144 290.25029584601015L331.07831677931193 291.85280088437565Q342.21296385623083 296.21824564406097 349.17557195395676 300.1968788427615Q356.1381800516827 304.17551204146207 360.83517757792646 310.6407909893504Q365.5045457069569 317.10606993723883 365.5045457069569 326.472435592513L365.5045457069569 326.472435592513Q365.5045457069569 341.19890430714764 354.0659752606928 349.92979382651833Q342.6274048144288 358.68831274310213 322.73423882092607 358.68831274310213L322.73423882092607 358.68831274310213Q312.98106160466705 358.68831274310213 302.34374367758573 356.00826121342186Q291.7064257505045 353.32820968374165 284.9372234332709 350.5376405652087L284.9372234332709 350.5376405652087L284.9372234332709 325.06333633463987L297.86778132904766 325.06333633463987Z " fill="#8bd8bd" transform="matrix(1.318573716024441,0,0,1.318573716024441,0,-74.06392116549037)"/><path d="M581.445757491133 358.6883064419733Q552.9974833900628 358.6883064419733 532.1556996903485 338.9114313984486Q511.46604579866107 319.286686162951 511.46604579866107 288.5564649414742L511.46604579866107 288.5564649414742Q511.46604579866107 254.63151775142796 536.1110746990533 231.65991673933394Q560.7561035994456 208.68831572723985 593.616142133302 208.68831572723985L593.616142133302 208.68831572723985Q627.5410893233482 208.68831572723985 645.6445364785748 228.92158019484592Q663.5958538257739 249.15484466245192 663.5958538257739 278.66802741971185L663.5958538257739 278.66802741971185Q663.5958538257739 314.8749217301647 639.5593441574902 336.781614086069Q615.5228344892064 358.6883064419733 581.445757491133 358.6883064419733L581.445757491133 358.6883064419733Z " fill="#243665" transform="matrix(1.318573716024441,0,0,1.318573716024441,0,-74.06392116549037)"/></g></svg>